<svg width="26" height="16" viewBox="0 0 26 16" fill="none" xmlns="http://www.w3.org/2000/svg">
<path opacity="0.6" d="M8 0C9.89239 0 11.6302 0.658406 13 1.75684C11.1717 3.22298 10 5.47411 10 8C10 10.5257 11.172 12.776 13 14.2422C11.6302 15.3408 9.89261 16 8 16C3.58172 16 0 12.4183 0 8C0 3.58172 3.58172 0 8 0ZM18 0C22.4183 0 26 3.58172 26 8C26 12.4183 22.4183 16 18 16C16.1074 16 14.3698 15.3408 13 14.2422C14.828 12.776 16 10.5257 16 8C16 5.47411 14.8283 3.22298 13 1.75684C14.3698 0.658406 16.1076 0 18 0Z" fill="white"/>
</svg>
