<svg width="42" height="42" viewBox="0 0 42 42" fill="none" xmlns="http://www.w3.org/2000/svg">
<rect width="42" height="42" rx="16" fill="#0F0F0F"/>
<g clip-path="url(#clip0_11021_62)">
<path d="M17.6667 14.3333L21 11L24.3333 14.3333L24.3333 15.1667L22.25 15.1667L22.25 23.5L19.75 23.5L19.75 15.1667L17.6667 15.1667L17.6667 14.3333Z" fill="#FE5900"/>
<path fill-rule="evenodd" clip-rule="evenodd" d="M13.9289 28.0711C12.0536 26.1957 11 23.6522 11 21C11 18.3478 12.0536 15.8043 13.9289 13.9289C15.1433 12.7146 16.6378 11.8448 18.2605 11.3826L16 13.643L16 16.8334L18.0833 16.8334L18.0833 25.1667L23.9167 25.1667L23.9167 16.8334L26 16.8334L26 13.643L23.7395 11.3826C25.3622 11.8448 26.8567 12.7146 28.0711 13.9289C29.9464 15.8043 31 18.3478 31 21C31 23.6522 29.9464 26.1957 28.0711 28.0711C26.1957 29.9464 23.6522 31 21 31C18.3478 31 15.8043 29.9464 13.9289 28.0711Z" fill="#FE5900" fill-opacity="0.2"/>
</g>
<defs>
<clipPath id="clip0_11021_62">
<rect width="20" height="20" fill="white" transform="translate(11 31) rotate(-90)"/>
</clipPath>
</defs>
</svg>
