<svg width="42" height="42" viewBox="0 0 42 42" fill="none" xmlns="http://www.w3.org/2000/svg">
<rect width="42" height="42" rx="16" fill="#0F0F0F"/>
<g clip-path="url(#clip0_11021_43)">
<path opacity="0.2" d="M21 11C15.4771 11 11 15.4771 11 21C11 26.5228 15.4771 31 21 31C26.5228 31 31 26.5228 31 21C31 15.4771 26.5228 11 21 11Z" fill="#FE5900"/>
<path fill-rule="evenodd" clip-rule="evenodd" d="M21.2534 21.6136L23.5001 23.9001V30.6849C27.8132 29.5748 31.0001 25.6596 31.0001 21C31.0001 18.823 30.3044 16.8085 29.1233 15.1667H23.9572C21.8638 15.1667 20.1668 16.8637 20.1668 18.957C20.1668 19.9507 20.557 20.9047 21.2534 21.6136ZM11.1383 22.6667H16.0001C17.841 22.6667 19.3334 24.1591 19.3334 26V30.8617C15.1459 30.1592 11.8409 26.8542 11.1383 22.6667Z" fill="#FE5900"/>
</g>
<defs>
<clipPath id="clip0_11021_43">
<rect width="20" height="20" fill="white" transform="translate(11 11)"/>
</clipPath>
</defs>
</svg>
